<?xml version="1.0" standalone="no"?>
<!DOCTYPE svg PUBLIC "-//W3C//DTD SVG 20010904//EN"
 "http://www.w3.org/TR/2001/REC-SVG-20010904/DTD/svg10.dtd">
<svg version="1.0" xmlns="http://www.w3.org/2000/svg"
 width="512.000000pt" height="512.000000pt" viewBox="0 0 512.000000 512.000000"
 preserveAspectRatio="xMidYMid meet">

<g transform="translate(0.000000,512.000000) scale(0.100000,-0.100000)"
fill="#000000" stroke="none">
<path d="M2273 5106 c-122 -39 -195 -141 -209 -288 l-7 -78 -891 -2 -891 -3
-37 -23 c-57 -36 -81 -82 -86 -171 -6 -102 9 -150 58 -195 l40 -36 0 -1350 0
-1350 -39 -35 c-48 -44 -65 -98 -60 -198 5 -92 38 -148 102 -178 39 -17 70
-19 385 -19 l343 0 24 25 c32 31 33 74 2 103 -23 22 -28 22 -355 22 -317 0
-332 1 -342 19 -11 22 -13 80 -4 105 6 15 213 16 2254 16 2041 0 2248 -1 2254
-16 9 -25 7 -83 -4 -105 -11 -19 -41 -19 -1790 -19 -1767 0 -1780 0 -1800 -20
-28 -28 -26 -75 5 -105 l24 -25 241 0 240 0 0 -95 c0 -105 10 -137 61 -191
l29 -30 -150 -386 c-82 -213 -150 -396 -150 -408 0 -28 43 -70 73 -70 14 0 34
8 46 18 13 11 78 164 177 420 l157 402 587 0 587 0 98 -252 c235 -606 226
-588 282 -588 30 0 73 42 73 70 0 12 -68 197 -152 411 l-151 390 25 27 c48 50
58 84 58 187 l0 95 723 0 c688 0 724 1 764 19 65 30 95 84 101 182 6 96 -13
154 -64 198 l-34 30 0 1351 0 1350 39 35 c49 44 65 100 59 199 -6 86 -29 133
-86 168 l-37 23 -891 3 -891 2 -7 78 c-12 132 -73 229 -175 276 -43 19 -65 21
-306 23 -195 2 -270 -1 -302 -11z m563 -162 c49 -36 64 -66 71 -137 l6 -67
-352 0 -351 0 0 43 c0 57 15 105 42 135 45 49 65 52 320 49 221 -2 238 -3 264
-23z m1968 -370 c17 -16 22 -89 8 -111 -6 -9 -84 -13 -291 -15 l-283 -3 -19
-24 c-24 -30 -24 -72 0 -102 19 -24 21 -24 260 -27 l241 -3 0 -1330 0 -1329
-2160 0 -2160 0 0 1330 0 1330 1780 0 c1573 0 1784 2 1810 15 53 27 53 103 0
130 -26 13 -242 15 -1853 15 -1655 0 -1825 1 -1831 16 -12 30 -6 93 10 108 14
14 231 16 2244 16 2013 0 2230 -2 2244 -16z m-1574 -3479 c0 -73 -3 -86 -19
-95 -27 -14 -1285 -14 -1312 0 -16 9 -19 22 -19 95 l0 85 675 0 675 0 0 -85z"/>
<path d="M1588 3941 c-127 -41 -220 -122 -277 -241 l-36 -75 -3 -537 c-2 -475
-1 -541 13 -568 35 -68 131 -91 196 -47 19 13 57 40 86 60 l51 38 124 -3 123
-3 6 -110 c4 -63 13 -129 23 -155 39 -103 123 -197 220 -247 97 -49 140 -53
709 -53 l529 0 75 -55 c66 -48 81 -55 122 -55 58 0 102 26 124 73 15 31 17 88
17 531 0 331 -4 513 -11 548 -19 86 -59 158 -124 224 -97 98 -197 134 -370
134 l-95 0 0 75 c0 146 -38 249 -125 343 -29 32 -75 70 -102 85 -103 56 -121
57 -693 56 -480 0 -530 -2 -582 -18z m1179 -159 c66 -35 110 -79 140 -140 l28
-57 0 -315 c0 -358 -3 -376 -79 -458 -61 -66 -104 -84 -224 -92 -116 -7 -145
-23 -145 -79 0 -69 53 -89 193 -73 114 14 198 52 271 125 107 105 139 200 139
414 l0 143 93 0 c153 0 247 -42 307 -137 49 -76 51 -110 48 -605 l-3 -457 -65
49 -65 49 -575 3 c-451 3 -583 7 -612 17 -60 23 -129 82 -162 141 -27 48 -31
66 -34 151 l-4 97 125 4 c106 2 128 6 146 22 29 26 29 86 0 112 -20 18 -43 19
-348 22 -179 2 -340 1 -357 -3 -16 -3 -58 -25 -92 -50 -34 -25 -64 -45 -67
-45 -3 0 -5 213 -5 473 0 551 -2 536 90 629 90 90 68 87 685 85 529 -2 530 -2
572 -25z"/>
<path d="M2125 721 c-11 -5 -28 -17 -37 -28 -10 -10 -69 -152 -133 -315 -101
-260 -114 -300 -105 -324 22 -56 80 -71 117 -32 12 13 65 136 118 273 54 138
101 258 106 268 8 13 23 17 69 17 l60 0 0 -249 c0 -155 4 -260 11 -280 20 -56
79 -69 120 -25 l24 26 0 297 c0 323 -2 333 -55 364 -22 14 -53 17 -152 16 -67
0 -132 -4 -143 -8z"/>
<path d="M2698 713 c-51 -33 -53 -43 -53 -364 l0 -297 24 -26 c41 -43 99 -30
121 28 6 16 10 128 10 277 l0 249 60 0 c46 0 61 -4 69 -17 5 -10 52 -130 106
-268 53 -137 106 -260 118 -272 37 -40 95 -25 116 31 9 23 -5 66 -105 324 -74
191 -124 306 -140 322 -23 24 -30 25 -162 28 -115 2 -141 0 -164 -15z"/>
</g>
</svg>
