<?xml version="1.0" standalone="no"?>
<!DOCTYPE svg PUBLIC "-//W3C//DTD SVG 20010904//EN"
 "http://www.w3.org/TR/2001/REC-SVG-20010904/DTD/svg10.dtd">
<svg version="1.0" xmlns="http://www.w3.org/2000/svg"
 width="512.000000pt" height="512.000000pt" viewBox="0 0 512.000000 512.000000"
 preserveAspectRatio="xMidYMid meet">

<g transform="translate(0.000000,512.000000) scale(0.100000,-0.100000)"
fill="#000000" stroke="none">
<path d="M4701 4675 c-183 -60 -292 -102 -308 -116 -13 -13 -28 -39 -34 -60
-17 -56 2 -102 64 -151 29 -22 53 -43 55 -48 3 -7 -103 -149 -188 -251 -60
-72 -67 -114 -24 -148 35 -27 69 -27 97 2 31 31 172 207 240 299 88 119 86
139 -13 212 l-59 43 212 72 c117 39 214 71 217 71 6 0 2 -281 -6 -378 l-6 -73
-33 25 c-44 34 -78 46 -105 39 -12 -3 -60 -56 -112 -125 -166 -221 -290 -362
-507 -579 -223 -223 -371 -352 -596 -520 -729 -542 -1608 -896 -2515 -1009
-253 -32 -381 -40 -642 -40 l-247 0 -21 27 c-25 32 -20 69 12 96 18 15 43 17
202 17 1186 0 2300 381 3231 1105 141 110 367 309 473 418 71 73 82 89 82 119
0 54 -56 91 -102 67 -13 -6 -81 -69 -153 -138 -134 -131 -274 -254 -404 -354
l-73 -57 -319 0 c-364 0 -373 -2 -426 -82 -28 -41 -28 -45 -31 -220 l-4 -178
-95 -45 c-53 -25 -97 -45 -99 -45 -2 0 -4 32 -4 70 0 83 -16 126 -59 163 -55
46 -82 48 -437 45 l-331 -3 -40 -27 c-72 -47 -78 -71 -81 -334 l-3 -231 -100
-20 -99 -20 0 129 c0 87 -4 139 -14 161 -16 39 -61 82 -99 96 -18 7 -150 11
-361 11 -324 0 -333 -1 -376 -22 -86 -44 -99 -86 -100 -305 l0 -153 -93 0
c-80 0 -100 -4 -144 -25 -106 -53 -151 -178 -102 -285 45 -99 103 -132 242
-138 l97 -4 0 -383 0 -384 -57 -6 c-81 -9 -174 -56 -218 -110 -63 -76 -75
-124 -75 -296 0 -164 7 -191 57 -225 27 -19 90 -19 2467 -22 1592 -1 2451 1
2475 8 20 5 50 24 66 41 l30 30 0 167 c0 154 -2 171 -24 220 -46 101 -145 170
-273 188 l-48 6 0 1213 c0 832 -3 1223 -11 1242 -15 42 -68 92 -109 103 -19 5
-63 10 -98 10 l-63 0 89 103 c79 91 202 243 258 321 l20 28 49 -31 c57 -36 97
-39 142 -11 64 39 65 43 75 358 5 158 7 301 3 319 -6 33 -64 93 -90 93 -7 0
-19 2 -27 5 -7 3 -141 -38 -297 -90z m-93 -2457 l2 -1208 -320 0 -320 0 0
1039 0 1038 123 111 c67 61 149 138 182 171 l60 62 135 -3 135 -3 3 -1207z
m-1433 839 c-64 -43 -340 -207 -349 -207 -3 0 -6 54 -6 120 l0 120 202 0 203
0 -50 -33z m635 -1072 l0 -975 -100 0 -100 0 0 302 c0 296 0 302 -22 325 -30
33 -80 31 -107 -3 -20 -26 -21 -38 -21 -325 l0 -299 -320 0 -320 0 0 665 0
664 103 52 c56 28 122 63 147 77 105 59 269 158 322 194 31 21 59 38 62 38 4
0 6 -184 6 -409 0 -454 -2 -444 67 -457 26 -5 37 -1 57 19 l26 26 0 464 0 464
98 76 c53 41 98 76 100 76 1 1 2 -438 2 -974z m-1502 714 l3 -95 -88 -34
c-132 -50 -304 -107 -435 -144 l-118 -34 0 198 c0 108 3 200 7 203 4 4 146 6
317 5 l311 -3 3 -96z m-1150 -276 l3 -132 -33 -6 c-94 -16 -312 -36 -455 -42
l-163 -6 0 139 c0 76 3 149 6 162 l6 22 317 -2 316 -3 3 -132z m1502 -788 l0
-625 -100 0 -100 0 2 586 3 585 90 39 c50 21 93 39 98 39 4 1 7 -280 7 -624z
m-350 -70 l0 -555 -320 0 -320 0 0 458 0 458 147 40 c81 21 221 64 312 95 91
31 169 57 174 58 4 0 7 -249 7 -554z m-800 -115 l0 -440 -100 0 -100 0 0 140
c0 136 -1 142 -25 165 -13 14 -36 25 -50 25 -14 0 -37 -11 -50 -25 -24 -23
-25 -29 -25 -165 l0 -140 -325 0 -325 0 0 384 0 383 46 7 c26 3 77 6 113 6 63
1 312 21 434 36 l57 7 0 -137 c0 -132 1 -138 25 -161 31 -32 69 -32 100 0 24
23 25 28 25 174 l0 149 78 15 c42 8 87 15 100 16 l22 1 0 -440z m3378 -628
c53 -39 66 -73 70 -199 l4 -113 -2402 0 -2402 0 4 119 c3 132 12 153 78 199
l33 22 2291 -2 2291 -3 33 -23z"/>
</g>
</svg>
