<svg width="1000" height="1000" viewBox="0 0 1000 1000" fill="none" xmlns="http://www.w3.org/2000/svg">
<path d="M508.882 505.378C469.035 369.291 369.429 316.388 319.984 329.118M508.882 505.378C558.69 675.487 448.558 820.12 569.528 853.679C690.498 887.238 750.881 658.112 777.522 543.549C804.163 428.986 815.837 257.737 796.146 189.462C776.454 121.187 693.057 146.646 693.057 146.646C596.65 175.779 443.491 238.837 319.984 329.118M508.882 505.378C492.627 508.785 465.851 520.208 434.141 533.736C347.381 570.748 223.687 623.515 177.51 570.973C114.456 499.226 206.654 411.959 319.984 329.118" stroke="#3271FC" stroke-width="40"/>
</svg>
