<svg width="1500" height="488" viewBox="0 0 1500 488" fill="none" xmlns="http://www.w3.org/2000/svg">
<path d="M350.982 76.931C305.251 90.7639 232.6 120.704 174.015 163.57C197.469 157.526 244.717 182.645 263.618 247.261C287.244 328.03 235.003 396.703 292.386 412.637C349.768 428.571 378.41 319.78 391.047 265.384C403.685 210.989 409.222 129.678 399.882 97.2607C390.541 64.8431 350.982 76.931 350.982 76.931Z" fill="#3271FC"/>
<path d="M174.015 163.57C120.256 202.904 76.5225 244.34 106.432 278.406C128.336 303.353 187.01 278.299 228.165 260.725C243.206 254.302 255.908 248.878 263.618 247.261C244.717 182.645 197.469 157.526 174.015 163.57Z" fill="#13299D"/>
<path d="M493.615 266.881C493.615 257.548 495.015 249.414 497.815 242.481C500.749 235.414 504.549 229.548 509.215 224.881C513.882 220.214 519.215 216.681 525.215 214.281C531.349 211.881 537.615 210.681 544.015 210.681C558.949 210.681 570.749 215.281 579.415 224.481C588.082 233.548 592.415 246.948 592.415 264.681C592.415 266.414 592.349 268.348 592.215 270.481C592.082 272.481 591.949 274.281 591.815 275.881H524.215C524.882 282.014 527.749 286.881 532.815 290.481C537.882 294.081 544.682 295.881 553.215 295.881C558.682 295.881 564.015 295.414 569.215 294.481C574.549 293.414 578.882 292.148 582.215 290.681L586.215 314.881C584.615 315.681 582.482 316.481 579.815 317.281C577.149 318.081 574.149 318.748 570.815 319.281C567.615 319.948 564.149 320.481 560.415 320.881C556.682 321.281 552.949 321.481 549.215 321.481C539.749 321.481 531.482 320.081 524.415 317.281C517.482 314.481 511.682 310.681 507.015 305.881C502.482 300.948 499.082 295.148 496.815 288.481C494.682 281.814 493.615 274.614 493.615 266.881ZM563.615 255.481C563.482 252.948 563.015 250.481 562.215 248.081C561.549 245.681 560.415 243.548 558.815 241.681C557.349 239.814 555.415 238.281 553.015 237.081C550.749 235.881 547.882 235.281 544.415 235.281C541.082 235.281 538.215 235.881 535.815 237.081C533.415 238.148 531.415 239.614 529.815 241.481C528.215 243.348 526.949 245.548 526.015 248.081C525.215 250.481 524.615 252.948 524.215 255.481H563.615ZM657.412 320.681C648.745 320.548 641.679 319.614 636.212 317.881C630.879 316.148 626.612 313.748 623.412 310.681C620.345 307.481 618.212 303.681 617.012 299.281C615.945 294.748 615.412 289.681 615.412 284.081V168.281L645.212 163.481V278.081C645.212 280.748 645.412 283.148 645.812 285.281C646.212 287.414 646.945 289.214 648.012 290.681C649.212 292.148 650.879 293.348 653.012 294.281C655.145 295.214 658.012 295.814 661.612 296.081L657.412 320.681ZM673.693 266.881C673.693 257.548 675.093 249.414 677.893 242.481C680.827 235.414 684.627 229.548 689.293 224.881C693.96 220.214 699.293 216.681 705.293 214.281C711.427 211.881 717.693 210.681 724.093 210.681C739.027 210.681 750.827 215.281 759.493 224.481C768.16 233.548 772.493 246.948 772.493 264.681C772.493 266.414 772.427 268.348 772.293 270.481C772.16 272.481 772.027 274.281 771.893 275.881H704.293C704.96 282.014 707.827 286.881 712.893 290.481C717.96 294.081 724.76 295.881 733.293 295.881C738.76 295.881 744.093 295.414 749.293 294.481C754.627 293.414 758.96 292.148 762.293 290.681L766.293 314.881C764.693 315.681 762.56 316.481 759.893 317.281C757.227 318.081 754.227 318.748 750.893 319.281C747.693 319.948 744.227 320.481 740.493 320.881C736.76 321.281 733.027 321.481 729.293 321.481C719.827 321.481 711.56 320.081 704.493 317.281C697.56 314.481 691.76 310.681 687.093 305.881C682.56 300.948 679.16 295.148 676.893 288.481C674.76 281.814 673.693 274.614 673.693 266.881ZM743.693 255.481C743.56 252.948 743.093 250.481 742.293 248.081C741.627 245.681 740.493 243.548 738.893 241.681C737.427 239.814 735.493 238.281 733.093 237.081C730.827 235.881 727.96 235.281 724.493 235.281C721.16 235.281 718.293 235.881 715.893 237.081C713.493 238.148 711.493 239.614 709.893 241.481C708.293 243.348 707.027 245.548 706.093 248.081C705.293 250.481 704.693 252.948 704.293 255.481H743.693ZM824.09 318.681C817.29 305.348 810.357 289.748 803.29 271.881C796.357 254.014 789.757 234.548 783.49 213.481H815.09C816.424 218.681 817.957 224.348 819.69 230.481C821.557 236.481 823.424 242.614 825.29 248.881C827.29 255.014 829.224 261.014 831.09 266.881C833.09 272.748 835.024 278.081 836.89 282.881C838.624 278.081 840.49 272.748 842.49 266.881C844.49 261.014 846.424 255.014 848.29 248.881C850.29 242.614 852.157 236.481 853.89 230.481C855.757 224.348 857.357 218.681 858.69 213.481H889.49C883.224 234.548 876.557 254.014 869.49 271.881C862.557 289.748 855.69 305.348 848.89 318.681H824.09ZM943.698 297.881C946.631 297.881 949.431 297.814 952.098 297.681C954.765 297.548 956.898 297.348 958.498 297.081V274.481C957.298 274.214 955.498 273.948 953.098 273.681C950.698 273.414 948.498 273.281 946.498 273.281C943.698 273.281 941.031 273.481 938.498 273.881C936.098 274.148 933.965 274.748 932.098 275.681C930.231 276.614 928.765 277.881 927.698 279.481C926.631 281.081 926.098 283.081 926.098 285.481C926.098 290.148 927.631 293.414 930.698 295.281C933.898 297.014 938.231 297.881 943.698 297.881ZM941.298 210.681C950.098 210.681 957.431 211.681 963.298 213.681C969.165 215.681 973.831 218.548 977.298 222.281C980.898 226.014 983.431 230.548 984.898 235.881C986.365 241.214 987.098 247.148 987.098 253.681V315.681C982.831 316.614 976.898 317.681 969.298 318.881C961.698 320.214 952.498 320.881 941.698 320.881C934.898 320.881 928.698 320.281 923.098 319.081C917.631 317.881 912.898 315.948 908.898 313.281C904.898 310.481 901.831 306.881 899.698 302.481C897.565 298.081 896.498 292.681 896.498 286.281C896.498 280.148 897.698 274.948 900.098 270.681C902.631 266.414 905.965 263.014 910.098 260.481C914.231 257.948 918.965 256.148 924.298 255.081C929.631 253.881 935.165 253.281 940.898 253.281C944.765 253.281 948.165 253.481 951.098 253.881C954.165 254.148 956.631 254.548 958.498 255.081V252.281C958.498 247.214 956.965 243.148 953.898 240.081C950.831 237.014 945.498 235.481 937.898 235.481C932.831 235.481 927.831 235.881 922.898 236.681C917.965 237.348 913.698 238.348 910.098 239.681L906.298 215.681C908.031 215.148 910.165 214.614 912.698 214.081C915.365 213.414 918.231 212.881 921.298 212.481C924.365 211.948 927.565 211.548 930.898 211.281C934.365 210.881 937.831 210.681 941.298 210.681ZM1013.04 187.281L1042.84 182.481V213.481H1078.64V238.281H1042.84V275.281C1042.84 281.548 1043.91 286.548 1046.04 290.281C1048.31 294.014 1052.78 295.881 1059.44 295.881C1062.64 295.881 1065.91 295.614 1069.24 295.081C1072.71 294.414 1075.84 293.548 1078.64 292.481L1082.84 315.681C1079.24 317.148 1075.24 318.414 1070.84 319.481C1066.44 320.548 1061.04 321.081 1054.64 321.081C1046.51 321.081 1039.78 320.014 1034.44 317.881C1029.11 315.614 1024.84 312.548 1021.64 308.681C1018.44 304.681 1016.18 299.881 1014.84 294.281C1013.64 288.681 1013.04 282.481 1013.04 275.681V187.281ZM1101.91 187.281L1131.71 182.481V213.481H1167.51V238.281H1131.71V275.281C1131.71 281.548 1132.78 286.548 1134.91 290.281C1137.18 294.014 1141.65 295.881 1148.31 295.881C1151.51 295.881 1154.78 295.614 1158.11 295.081C1161.58 294.414 1164.71 293.548 1167.51 292.481L1171.71 315.681C1168.11 317.148 1164.11 318.414 1159.71 319.481C1155.31 320.548 1149.91 321.081 1143.51 321.081C1135.38 321.081 1128.65 320.014 1123.31 317.881C1117.98 315.614 1113.71 312.548 1110.51 308.681C1107.31 304.681 1105.05 299.881 1103.71 294.281C1102.51 288.681 1101.91 282.481 1101.91 275.681V187.281ZM1182.87 266.881C1182.87 257.548 1184.27 249.414 1187.07 242.481C1190.01 235.414 1193.81 229.548 1198.47 224.881C1203.14 220.214 1208.47 216.681 1214.47 214.281C1220.61 211.881 1226.87 210.681 1233.27 210.681C1248.21 210.681 1260.01 215.281 1268.67 224.481C1277.34 233.548 1281.67 246.948 1281.67 264.681C1281.67 266.414 1281.61 268.348 1281.47 270.481C1281.34 272.481 1281.21 274.281 1281.07 275.881H1213.47C1214.14 282.014 1217.01 286.881 1222.07 290.481C1227.14 294.081 1233.94 295.881 1242.47 295.881C1247.94 295.881 1253.27 295.414 1258.47 294.481C1263.81 293.414 1268.14 292.148 1271.47 290.681L1275.47 314.881C1273.87 315.681 1271.74 316.481 1269.07 317.281C1266.41 318.081 1263.41 318.748 1260.07 319.281C1256.87 319.948 1253.41 320.481 1249.67 320.881C1245.94 321.281 1242.21 321.481 1238.47 321.481C1229.01 321.481 1220.74 320.081 1213.67 317.281C1206.74 314.481 1200.94 310.681 1196.27 305.881C1191.74 300.948 1188.34 295.148 1186.07 288.481C1183.94 281.814 1182.87 274.614 1182.87 266.881ZM1252.87 255.481C1252.74 252.948 1252.27 250.481 1251.47 248.081C1250.81 245.681 1249.67 243.548 1248.07 241.681C1246.61 239.814 1244.67 238.281 1242.27 237.081C1240.01 235.881 1237.14 235.281 1233.67 235.281C1230.34 235.281 1227.47 235.881 1225.07 237.081C1222.67 238.148 1220.67 239.614 1219.07 241.481C1217.47 243.348 1216.21 245.548 1215.27 248.081C1214.47 250.481 1213.87 252.948 1213.47 255.481H1252.87Z" fill="#3271FC"/>
</svg>
