<?xml version="1.0" standalone="no"?>
<!DOCTYPE svg PUBLIC "-//W3C//DTD SVG 20010904//EN"
 "http://www.w3.org/TR/2001/REC-SVG-20010904/DTD/svg10.dtd">
<svg version="1.0" xmlns="http://www.w3.org/2000/svg"
 width="512.000000pt" height="512.000000pt" viewBox="0 0 512.000000 512.000000"
 preserveAspectRatio="xMidYMid meet">

<g transform="translate(0.000000,512.000000) scale(0.100000,-0.100000)"
fill="#000000" stroke="none">
<path d="M3235 4998 c-339 -19 -710 -161 -970 -371 -516 -417 -755 -1048 -644
-1696 20 -117 71 -287 114 -384 l23 -54 -109 -109 c-127 -127 -149 -165 -149
-261 0 -74 22 -133 65 -173 l26 -24 -153 -153 -153 -153 -141 141 c-115 115
-148 142 -180 149 -78 18 -106 2 -261 -154 -139 -138 -143 -143 -143 -185 0
-54 11 -74 71 -136 l49 -51 -75 -74 -75 -74 -52 51 c-60 58 -86 73 -123 73
-44 0 -76 -24 -212 -162 -141 -143 -153 -165 -138 -245 6 -31 31 -63 147 -180
l141 -142 -27 -36 c-59 -78 -73 -172 -36 -253 24 -54 140 -171 197 -201 51
-26 146 -28 201 -6 26 11 242 221 712 691 l676 675 24 -27 c61 -65 169 -89
261 -59 45 15 73 37 166 128 l113 110 103 -41 c243 -99 393 -127 677 -127 185
0 231 3 328 23 381 77 703 258 969 543 546 588 615 1500 164 2171 -155 229
-354 416 -585 548 -309 175 -631 249 -1001 228z m365 -163 c348 -53 653 -209
902 -462 184 -185 308 -389 387 -631 57 -173 75 -296 75 -502 0 -207 -18 -327
-75 -501 -181 -549 -637 -956 -1213 -1081 -87 -19 -131 -22 -316 -22 -186 0
-229 3 -320 22 -495 108 -889 405 -1114 842 -126 245 -178 461 -179 740 -1
359 98 664 313 962 66 93 262 284 363 355 111 78 294 172 415 212 82 27 232
62 317 74 77 11 357 6 445 -8z m-1723 -2553 c102 -163 286 -356 453 -476 50
-35 97 -67 103 -69 17 -7 -154 -174 -186 -182 -15 -4 -39 -4 -54 0 -18 4 -118
96 -285 263 l-258 257 0 49 c0 48 2 50 87 137 48 49 89 89 92 89 3 -1 25 -31
48 -68z m-75 -569 c54 -54 98 -102 98 -108 0 -5 -173 -183 -385 -395 l-385
-385 -100 100 c-55 55 -100 104 -100 109 0 5 16 26 35 47 38 43 45 80 20 116
-19 26 -59 37 -88 22 -12 -6 -129 -117 -260 -247 l-237 -237 -127 127 -128
128 105 105 104 104 52 -49 c56 -53 98 -67 161 -55 54 10 239 191 254 249 15
57 -2 108 -59 168 l-46 49 105 105 104 104 127 -127 127 -127 -50 -53 c-44
-47 -50 -58 -47 -90 4 -47 43 -79 85 -69 18 5 112 91 278 257 138 137 252 249
255 249 2 0 49 -44 102 -97z m-825 -1040 l-47 -48 -105 105 -105 104 47 48 48
48 105 -105 105 -105 -48 -47z m-278 -278 c-118 -117 -128 -125 -165 -125 -34
0 -46 7 -106 67 -102 101 -101 105 59 265 l128 128 105 -105 105 -105 -126
-125z"/>
<path d="M3210 4600 c-337 -42 -628 -188 -855 -432 -172 -185 -287 -413 -342
-678 -26 -128 -24 -382 5 -517 72 -337 249 -619 510 -816 256 -192 512 -278
828 -278 282 0 525 72 760 227 151 99 334 288 334 345 0 39 -32 69 -74 69 -29
0 -42 -10 -102 -77 -38 -42 -95 -98 -128 -126 l-60 -49 -50 56 c-71 78 -132
114 -300 181 l-146 59 0 33 c0 18 4 33 8 33 4 0 36 23 70 50 57 46 67 50 115
50 214 1 401 164 438 383 16 99 1 168 -85 369 -41 95 -77 193 -81 218 -24 145
-89 266 -204 380 -144 143 -293 204 -496 204 -160 0 -327 -52 -353 -109 -19
-41 -4 -85 34 -101 31 -13 39 -12 111 18 92 36 229 49 326 28 205 -42 389
-231 427 -440 7 -36 47 -146 89 -245 74 -174 76 -182 76 -260 -1 -88 -18 -133
-76 -199 -31 -36 -119 -86 -150 -86 -16 0 -17 4 -6 33 8 22 12 127 12 349 l0
317 -29 30 c-41 43 -79 51 -241 51 -77 0 -166 4 -198 10 -70 11 -158 50 -211
92 -49 39 -108 47 -151 20 -37 -24 -99 -126 -127 -212 -37 -112 -38 -581 -2
-675 9 -21 -13 -19 -72 9 -61 29 -115 82 -145 144 -17 36 -23 64 -23 122 1 71
4 84 73 240 46 105 80 198 92 254 11 54 35 122 61 172 38 75 40 85 29 112 -22
53 -98 58 -134 10 -48 -65 -96 -184 -112 -283 -4 -22 -41 -119 -83 -215 l-77
-175 0 -115 c0 -109 2 -119 32 -183 77 -162 236 -267 406 -267 56 0 61 -2 118
-52 48 -43 59 -58 59 -83 0 -31 -2 -32 -145 -89 -166 -66 -243 -113 -302 -181
-40 -47 -42 -48 -65 -33 -13 8 -55 47 -94 85 -367 363 -465 918 -244 1380 65
137 137 240 240 343 437 437 1130 476 1614 91 400 -319 557 -860 391 -1348
-19 -55 -35 -111 -35 -122 0 -59 91 -83 129 -35 29 37 86 220 106 343 21 125
16 373 -10 491 -90 410 -359 757 -733 944 -111 56 -218 92 -343 117 -116 22
-307 31 -409 19z m43 -1050 c56 -19 246 -37 415 -40 l32 0 0 -222 c0 -242 -7
-311 -40 -380 -27 -58 -92 -123 -155 -156 -72 -37 -188 -42 -267 -12 -75 28
-150 96 -185 168 l-28 57 -3 250 c-3 258 1 299 39 380 l20 43 55 -33 c31 -19
83 -43 117 -55z m187 -1026 c0 -57 -40 -104 -90 -104 -50 0 -90 47 -90 104 l0
46 90 0 90 0 0 -46z m-277 -165 c87 -119 293 -116 379 6 l30 43 119 -49 c140
-56 170 -73 224 -128 27 -29 36 -44 29 -51 -20 -20 -193 -90 -272 -110 -305
-78 -617 -42 -891 104 l-33 18 33 35 c19 19 47 44 64 56 37 27 278 127 286
118 3 -3 17 -22 32 -42z"/>
</g>
</svg>
