<?xml version="1.0" standalone="no"?>
<!DOCTYPE svg PUBLIC "-//W3C//DTD SVG 20010904//EN"
 "http://www.w3.org/TR/2001/REC-SVG-20010904/DTD/svg10.dtd">
<svg version="1.0" xmlns="http://www.w3.org/2000/svg"
 width="512.000000pt" height="512.000000pt" viewBox="0 0 512.000000 512.000000"
 preserveAspectRatio="xMidYMid meet">

<g transform="translate(0.000000,512.000000) scale(0.100000,-0.100000)"
fill="#000000" stroke="none">
<path d="M2388 5106 c-222 -40 -402 -132 -570 -294 -150 -144 -242 -304 -294
-510 -42 -166 -28 -232 49 -232 48 0 65 24 82 121 65 373 321 653 686 751 120
32 327 32 449 -1 264 -70 482 -247 603 -486 93 -185 119 -428 67 -630 -35
-136 -75 -209 -353 -642 l-277 -431 0 -64 c0 -62 -19 -112 -36 -96 -4 5 3 176
15 380 12 205 21 385 21 401 0 26 1 27 59 27 147 0 250 93 251 228 1 203 -243
302 -382 155 -37 -38 -55 -85 -63 -165 l-7 -68 -128 0 -128 0 -7 68 c-4 37
-14 83 -22 102 -61 147 -266 179 -368 58 -40 -47 -55 -89 -55 -150 0 -68 26
-123 78 -170 47 -42 94 -58 175 -58 l57 0 0 -42 c0 -24 9 -187 20 -363 11
-176 20 -340 20 -365 -1 -42 -2 -44 -15 -26 -10 13 -15 43 -15 84 l0 64 -275
429 c-281 437 -307 483 -345 608 -25 82 -58 116 -100 106 -64 -16 -74 -58 -39
-171 35 -115 85 -203 352 -618 240 -373 257 -402 257 -445 0 -75 18 -122 65
-167 l42 -41 5 -89 c6 -107 29 -165 83 -213 60 -52 91 -61 220 -61 129 0 160
9 220 61 54 48 77 106 83 213 l5 89 42 41 c47 45 65 92 65 167 0 43 17 72 257
445 141 219 273 433 294 474 172 343 131 786 -101 1099 -75 101 -209 225 -309
285 -89 54 -229 110 -330 132 -94 21 -309 26 -403 10z m-134 -1428 c7 -13 17
-47 20 -75 l7 -53 -51 0 c-41 0 -56 5 -75 25 -50 49 -20 125 50 125 25 0 38
-6 49 -22z m716 2 c28 -28 26 -75 -5 -105 -19 -20 -34 -25 -75 -25 l-51 0 7
53 c9 73 26 97 69 97 22 0 43 -8 55 -20z m-291 -322 c0 -24 -10 -205 -22 -403
l-22 -360 -75 0 -75 0 -22 360 c-12 198 -22 379 -22 403 l-1 42 120 0 120 0
-1 -42z m31 -990 c-1 -109 -24 -128 -150 -128 -77 0 -83 2 -111 29 -27 27 -29
35 -29 100 l0 71 145 0 145 0 0 -72z"/>
<path d="M1031 4814 c-24 -30 -27 -63 -8 -86 6 -9 54 -52 105 -97 68 -59 100
-81 121 -81 38 0 71 33 71 73 0 34 -23 61 -152 175 -59 52 -105 57 -137 16z"/>
<path d="M3910 4749 c-89 -81 -100 -94 -100 -124 0 -42 32 -75 72 -75 20 0 51
21 115 76 48 41 96 85 106 96 38 45 2 118 -59 118 -29 0 -49 -13 -134 -91z"/>
<path d="M1213 4217 c-44 -25 -193 -169 -199 -194 -14 -53 51 -107 99 -81 21
10 105 81 175 146 42 40 45 91 6 121 -30 24 -49 26 -81 8z"/>
<path d="M3836 4209 c-31 -25 -35 -76 -8 -106 29 -33 166 -149 189 -161 48
-26 113 28 99 81 -3 14 -45 61 -92 104 -122 111 -141 119 -188 82z"/>
<path d="M810 3421 c-45 -24 -76 -69 -84 -126 l-7 -45 -173 0 c-161 0 -176 -2
-216 -23 -30 -16 -51 -37 -67 -67 l-23 -43 0 -1351 c0 -1182 2 -1359 15 -1411
46 -174 183 -307 353 -344 75 -16 3828 -16 3904 0 170 36 307 170 353 344 13
52 15 229 15 1411 l0 1351 -23 43 c-16 30 -37 51 -67 67 -40 21 -55 23 -211
23 l-168 0 -7 45 c-8 57 -39 102 -84 126 -32 17 -63 19 -363 19 -191 0 -336
-4 -346 -10 -10 -5 -24 -22 -30 -39 -10 -24 -10 -34 3 -59 8 -16 23 -32 31
-36 9 -3 156 -6 325 -6 l309 0 3 -475 c3 -459 4 -475 23 -494 11 -11 32 -23
47 -26 22 -6 33 -1 58 23 l30 30 0 376 0 377 158 -3 157 -3 0 -1355 0 -1355
-28 -57 c-32 -65 -89 -121 -156 -152 l-46 -21 -1935 0 -1935 0 -45 21 c-68 32
-126 88 -157 152 l-28 57 0 1355 0 1355 163 3 162 2 0 -1287 c0 -900 3 -1300
11 -1328 15 -56 54 -104 103 -126 40 -18 102 -19 1731 -19 1629 0 1691 1 1731
19 51 23 89 71 104 131 7 32 10 275 8 817 l-3 772 -22 22 c-28 28 -79 28 -107
-1 -21 -20 -21 -28 -24 -575 l-3 -555 -627 0 c-689 0 -706 -2 -823 -60 -35
-18 -85 -50 -111 -72 l-48 -39 0 494 c0 485 0 495 -21 521 -28 36 -80 36 -108
0 -21 -26 -21 -36 -21 -521 l0 -494 -47 40 c-65 53 -158 99 -240 116 -85 18
-449 21 -487 4 -51 -23 -55 -103 -7 -128 12 -7 95 -11 209 -11 211 0 272 -8
352 -47 95 -46 181 -154 206 -255 l6 -28 -789 0 c-600 0 -792 3 -801 12 -8 8
-12 59 -12 165 l0 153 290 0 c277 0 291 1 310 20 30 30 27 83 -6 109 -26 20
-39 21 -310 21 l-284 0 0 1160 0 1160 311 0 c179 0 318 4 328 10 10 5 24 22
30 39 10 24 10 34 -3 59 -8 16 -23 32 -31 36 -9 3 -164 6 -343 6 -299 0 -330
-2 -362 -19z m3440 -2754 c0 -106 -4 -157 -12 -165 -9 -9 -201 -12 -801 -12
l-789 0 7 28 c34 141 162 263 305 291 25 5 325 9 668 10 l622 1 0 -153z"/>
<path d="M1035 2565 c-14 -13 -25 -36 -25 -50 0 -14 11 -37 25 -50 l24 -25
396 0 396 0 24 25 c14 13 25 36 25 50 0 14 -11 37 -25 50 l-24 25 -396 0 -396
0 -24 -25z"/>
<path d="M3255 2565 c-14 -13 -25 -36 -25 -50 0 -14 11 -37 25 -50 l24 -25
396 0 396 0 24 25 c14 13 25 36 25 50 0 14 -11 37 -25 50 l-24 25 -396 0 -396
0 -24 -25z"/>
<path d="M1177 2190 c-34 -27 -37 -80 -7 -110 19 -19 33 -20 469 -20 l450 0
20 26 c26 33 27 65 2 95 l-19 24 -444 3 c-439 3 -445 2 -471 -18z"/>
<path d="M3043 2200 c-45 -18 -55 -72 -22 -114 l20 -26 450 0 c436 0 450 1
469 20 30 30 27 83 -6 109 -26 21 -36 21 -458 20 -237 0 -441 -4 -453 -9z"/>
<path d="M1170 1820 c-30 -30 -27 -83 6 -109 26 -21 37 -21 466 -21 l439 0 24
25 c30 30 32 64 4 99 l-20 26 -450 0 c-436 0 -450 -1 -469 -20z"/>
<path d="M3021 1814 c-28 -35 -26 -69 4 -99 l24 -25 439 0 c429 0 440 0 466
21 33 26 36 79 6 109 -19 19 -33 20 -469 20 l-450 0 -20 -26z"/>
<path d="M1200 1473 c-51 -19 -68 -85 -30 -123 19 -19 33 -20 469 -20 l450 0
20 26 c34 43 24 86 -26 112 -16 9 -141 12 -445 11 -233 0 -430 -3 -438 -6z"/>
<path d="M3045 1468 c-48 -28 -57 -70 -24 -112 l20 -26 450 0 c436 0 450 1
469 20 27 27 26 81 -1 106 -20 18 -44 19 -458 21 -317 2 -441 0 -456 -9z"/>
</g>
</svg>
