<?xml version="1.0" standalone="no"?>
<!DOCTYPE svg PUBLIC "-//W3C//DTD SVG 20010904//EN"
 "http://www.w3.org/TR/2001/REC-SVG-20010904/DTD/svg10.dtd">
<svg version="1.0" xmlns="http://www.w3.org/2000/svg"
 width="512.000000pt" height="512.000000pt" viewBox="0 0 512.000000 512.000000"
 preserveAspectRatio="xMidYMid meet">

<g transform="translate(0.000000,512.000000) scale(0.100000,-0.100000)"
fill="#000000" stroke="none">
<path d="M2375 5113 c-58 -8 -185 -43 -239 -67 -93 -41 -195 -112 -202 -141
-9 -37 14 -84 45 -92 37 -10 47 -6 126 42 283 174 650 140 870 -80 111 -111
169 -239 182 -403 6 -81 5 -84 -13 -74 -11 6 -28 20 -39 32 -30 34 -69 50
-118 50 -38 0 -54 -7 -103 -45 l-57 -45 -242 0 c-274 0 -330 -7 -433 -56 -163
-78 -266 -232 -287 -428 -7 -60 -9 -66 -30 -66 -13 0 -30 -3 -39 -6 -11 -4
-19 10 -35 59 -71 230 -46 515 64 743 25 52 45 102 45 112 0 52 -70 87 -115
58 -42 -27 -115 -190 -157 -346 -14 -54 -21 -120 -25 -240 -4 -143 -2 -179 16
-268 12 -57 30 -125 40 -151 l18 -48 -27 -39 c-82 -119 -66 -280 37 -375 51
-47 98 -69 167 -78 l48 -6 18 -70 c24 -92 50 -151 103 -233 44 -68 128 -159
173 -189 23 -14 24 -21 24 -112 l-1 -96 -53 -38 c-30 -21 -85 -68 -124 -105
-60 -57 -72 -74 -78 -109 -6 -42 -8 -43 -222 -190 -285 -196 -363 -276 -434
-445 -51 -120 -58 -177 -58 -475 0 -260 1 -274 20 -293 27 -27 81 -26 106 1
17 19 19 44 24 303 6 274 6 283 34 361 34 99 101 201 169 258 54 46 394 283
420 292 9 4 42 -32 100 -109 48 -64 100 -122 116 -131 45 -23 103 -18 215 16
56 17 109 33 119 35 16 5 17 -13 17 -287 l0 -291 -81 -162 c-45 -88 -82 -162
-84 -163 -1 -2 -78 -14 -171 -27 -169 -25 -169 -25 -201 -60 -27 -30 -33 -44
-33 -83 0 -46 1 -47 129 -177 l128 -131 -29 -160 c-32 -178 -29 -217 19 -254
49 -39 94 -29 253 54 79 41 147 75 153 75 5 0 74 -34 152 -75 172 -90 206 -96
261 -41 42 42 43 59 8 261 l-26 150 113 109 c129 122 149 148 149 191 0 42
-34 94 -73 109 -17 8 -86 21 -152 30 -66 9 -135 19 -153 23 -30 5 -37 15 -117
172 l-85 166 0 288 c0 270 1 288 18 283 313 -97 316 -96 445 80 45 62 85 113
89 113 4 1 35 -17 69 -39 72 -46 100 -50 134 -15 48 47 32 83 -65 154 -54 39
-70 57 -70 76 0 13 -5 36 -12 50 -12 28 -186 180 -225 198 -22 10 -23 16 -23
102 l0 91 35 31 c45 40 49 91 9 122 -37 29 -51 27 -125 -21 -190 -124 -393
-149 -587 -72 -186 74 -329 237 -377 431 -13 52 -15 121 -13 405 l3 343 34 63
c39 71 98 128 169 164 45 22 58 23 348 28 l301 5 56 44 c66 50 63 51 154 -37
66 -64 116 -140 145 -222 22 -63 23 -75 23 -410 l0 -345 -29 -87 c-31 -97 -30
-129 9 -154 29 -19 66 -13 93 16 17 18 53 119 67 188 6 30 9 32 49 32 53 0
155 49 191 92 68 80 90 182 61 279 -9 30 -24 64 -34 77 -18 23 -17 30 15 250
46 321 43 408 -22 550 -71 155 -246 293 -405 318 -36 6 -47 15 -96 80 -120
159 -294 261 -511 299 -79 14 -197 17 -268 8z m981 -593 c101 -57 175 -169
197 -294 9 -53 6 -94 -18 -272 -15 -115 -30 -212 -34 -215 -3 -3 -24 -4 -47
-2 l-41 5 -6 76 c-7 91 -36 183 -83 271 -19 35 -33 70 -30 77 3 7 10 49 16 93
10 75 4 188 -16 265 -8 33 -1 32 62 -4z m-1488 -1073 l3 -137 -26 0 c-69 0
-125 63 -125 142 0 39 6 54 31 83 28 32 79 57 104 51 6 -2 11 -59 13 -139z
m1636 110 c31 -22 56 -72 56 -112 0 -58 -55 -122 -114 -132 l-36 -6 0 142 0
143 33 -7 c17 -4 45 -17 61 -28z m-1006 -1043 c128 -24 297 -11 400 31 l32 14
0 -70 0 -70 -147 -71 -146 -71 -149 74 -148 73 0 68 0 67 43 -15 c23 -9 75
-22 115 -30z m62 -445 l0 -75 -122 -38 c-68 -20 -130 -39 -139 -42 -12 -3 -46
35 -117 130 l-101 134 77 65 77 65 162 -82 163 -81 0 -76z m563 168 l68 -62
-91 -125 c-51 -69 -96 -129 -100 -133 -6 -7 -254 62 -281 78 -5 4 -9 39 -9 79
l0 73 158 76 c86 41 164 76 172 76 8 0 46 -28 83 -62z m-316 -1451 c16 -7 87
-22 158 -31 72 -10 132 -20 134 -22 3 -2 -43 -52 -102 -112 -124 -126 -121
-114 -87 -310 11 -63 18 -117 16 -119 -2 -2 -61 27 -131 63 -153 81 -153 81
-314 -4 -63 -33 -117 -58 -120 -56 -2 3 6 67 19 144 20 119 22 143 10 170 -7
18 -55 71 -106 119 -51 48 -93 91 -93 97 -1 5 62 19 139 31 117 18 146 26 166
45 14 13 52 80 85 149 l61 125 69 -137 c51 -102 76 -141 96 -152z"/>
<path d="M1192 2974 c-12 -8 -33 -36 -46 -62 -29 -56 -86 -112 -143 -141 -52
-26 -73 -55 -73 -101 0 -44 23 -78 64 -95 63 -27 111 -72 144 -133 38 -70 63
-92 108 -92 49 0 62 8 96 59 46 69 96 118 159 156 76 47 99 102 63 153 -8 12
-41 40 -72 61 -65 44 -105 85 -150 152 -17 26 -39 49 -47 53 -30 11 -80 6
-103 -10z m162 -281 l29 -23 -29 -22 c-16 -12 -44 -39 -63 -59 l-34 -37 -57
60 -58 60 57 58 56 59 35 -37 c19 -20 48 -47 64 -59z"/>
<path d="M3810 2077 c-28 -9 -41 -24 -65 -69 -41 -76 -78 -114 -147 -149 -61
-31 -88 -66 -88 -116 0 -42 23 -68 91 -104 67 -36 98 -69 134 -139 42 -83 99
-109 164 -76 15 8 38 35 51 61 27 52 104 126 161 156 101 51 106 149 11 206
-63 36 -128 98 -173 164 -25 38 -49 61 -70 68 -18 6 -32 11 -33 10 -1 0 -17
-5 -36 -12z m74 -230 c14 -18 43 -46 65 -62 22 -17 39 -32 38 -35 -1 -3 -32
-33 -68 -68 l-67 -63 -64 66 -64 66 60 63 c34 35 64 64 68 65 4 0 18 -14 32
-32z"/>
<path d="M1739 1331 c-24 -19 -24 -23 -27 -213 -4 -238 -2 -254 43 -275 29
-14 38 -14 65 -3 17 7 36 24 41 37 5 13 9 114 9 224 0 199 0 200 -25 224 -29
30 -74 32 -106 6z"/>
<path d="M3432 1327 c-21 -22 -22 -31 -22 -239 0 -204 1 -216 20 -233 27 -24
83 -24 110 0 19 17 20 29 20 235 0 213 0 217 -23 238 -31 29 -77 29 -105 -1z"/>
<path d="M3937 1278 c-30 -23 -37 -68 -37 -236 0 -227 12 -262 89 -262 20 0
36 8 51 27 20 26 21 36 18 236 -3 206 -3 209 -27 228 -27 22 -70 25 -94 7z"/>
<path d="M1503 775 c-26 -11 -41 -32 -77 -103 l-45 -89 -92 -13 c-79 -10 -97
-16 -121 -40 -22 -22 -28 -38 -28 -69 0 -38 6 -47 72 -110 l72 -69 -12 -79
c-18 -119 -16 -140 17 -174 41 -40 74 -37 173 15 l84 44 84 -44 c96 -49 125
-53 164 -23 43 34 48 59 30 162 l-16 92 71 71 c67 67 71 73 71 116 0 69 -33
93 -151 109 l-91 13 -44 88 c-56 112 -90 134 -161 103z m112 -313 c14 -11 48
-23 76 -27 l51 -7 -36 -37 c-47 -48 -60 -86 -47 -142 5 -24 8 -45 6 -47 -2 -2
-21 6 -44 17 -51 26 -107 27 -149 1 -18 -11 -34 -20 -37 -20 -2 0 -3 31 -2 69
2 70 2 70 -42 114 l-43 45 51 7 c62 8 100 37 126 95 l19 42 23 -45 c12 -25 34
-54 48 -65z"/>
<path d="M3700 783 c-31 -12 -57 -45 -94 -121 l-38 -79 -91 -12 c-104 -14
-121 -21 -142 -61 -28 -55 -21 -77 59 -159 l74 -76 -15 -92 c-18 -107 -10
-144 38 -168 43 -23 67 -18 156 28 l81 43 84 -42 c91 -47 115 -51 157 -29 48
24 57 62 38 168 l-17 92 69 70 c75 75 90 109 71 155 -18 43 -49 58 -148 71
l-90 12 -38 79 c-21 43 -48 87 -59 98 -22 21 -71 33 -95 23z m55 -264 c25 -54
55 -76 115 -84 28 -4 50 -11 50 -16 0 -4 -13 -18 -29 -30 -42 -31 -55 -69 -47
-134 3 -30 4 -55 1 -55 -3 0 -23 9 -45 20 -50 25 -90 25 -140 0 -22 -11 -41
-20 -44 -20 -3 0 -3 29 1 64 l6 64 -47 50 -47 50 53 7 c68 9 89 23 119 79 13
25 27 46 30 46 3 0 14 -18 24 -41z"/>
</g>
</svg>
