<?xml version="1.0" standalone="no"?>
<!DOCTYPE svg PUBLIC "-//W3C//DTD SVG 20010904//EN"
 "http://www.w3.org/TR/2001/REC-SVG-20010904/DTD/svg10.dtd">
<svg version="1.0" xmlns="http://www.w3.org/2000/svg"
 width="512.000000pt" height="512.000000pt" viewBox="0 0 512.000000 512.000000"
 preserveAspectRatio="xMidYMid meet">

<g transform="translate(0.000000,512.000000) scale(0.100000,-0.100000)"
fill="#000000" stroke="none">
<path d="M2086 5030 c-411 -82 -452 -91 -484 -117 -73 -60 -72 -49 -72 -511 0
-378 2 -423 21 -515 70 -348 302 -652 619 -812 103 -52 340 -135 386 -135 50
0 275 80 394 140 268 136 476 378 575 670 36 107 42 169 19 197 -11 12 -31 25
-45 28 -45 11 -75 -27 -104 -130 -78 -275 -266 -506 -514 -630 -76 -38 -302
-125 -325 -125 -22 0 -251 87 -318 121 -294 148 -499 431 -548 754 -6 43 -9
219 -8 450 l3 380 205 41 c113 23 310 62 438 87 l234 45 426 -84 c234 -46 429
-87 433 -91 5 -5 9 -142 11 -305 3 -290 4 -298 25 -319 26 -27 77 -28 104 -3
18 16 19 35 19 331 0 244 -3 321 -14 346 -16 38 -61 82 -98 96 -33 12 -891
181 -916 180 -9 0 -219 -41 -466 -89z"/>
<path d="M2186 4745 c-258 -51 -323 -67 -340 -85 -20 -20 -21 -28 -21 -333 1
-347 7 -400 69 -547 78 -183 229 -346 402 -433 73 -37 235 -97 261 -97 25 0
178 57 254 95 179 90 326 248 405 436 62 146 68 199 69 546 0 308 0 313 -22
334 -18 19 -76 33 -340 85 -175 35 -340 63 -368 62 -27 0 -194 -29 -369 -63z
m648 -135 c144 -28 269 -53 279 -56 16 -5 17 -27 17 -273 0 -297 -9 -360 -68
-477 -89 -175 -217 -289 -411 -364 l-94 -37 -86 32 c-204 77 -335 192 -421
370 -64 133 -70 176 -70 477 l0 267 58 12 c202 42 491 97 511 98 13 1 142 -22
285 -49z"/>
<path d="M2771 4333 c-14 -16 -98 -115 -185 -220 l-158 -193 -44 37 c-54 43
-97 48 -126 14 -37 -47 -25 -78 60 -158 84 -80 108 -91 145 -71 21 11 368 422
420 498 24 34 21 67 -8 95 -32 33 -70 32 -104 -2z"/>
<path d="M22 3345 c-28 -35 -28 -58 0 -89 32 -36 1379 -666 1424 -666 18 0
142 18 276 40 134 22 277 43 318 47 153 12 348 -35 499 -119 64 -36 120 -86
349 -312 283 -280 300 -303 285 -365 -16 -67 -81 -110 -145 -97 -17 3 -128 76
-249 161 -120 85 -230 160 -244 165 -74 28 -112 6 -305 -172 -139 -129 -155
-147 -158 -180 -2 -27 2 -41 19 -57 46 -43 68 -32 234 119 84 77 158 140 163
140 5 0 99 -63 208 -141 110 -77 216 -150 238 -161 127 -65 295 -8 363 126 32
62 36 167 9 229 -10 22 -93 117 -194 223 -97 101 -178 188 -180 193 -4 12 134
31 221 31 103 -1 203 -21 365 -74 156 -51 179 -54 237 -27 36 16 1186 683
1292 750 55 33 70 68 49 109 -16 31 -34 42 -67 42 -11 0 -316 -173 -680 -385
l-660 -386 -138 45 c-76 25 -181 53 -232 62 -123 21 -298 15 -431 -16 l-97
-23 -34 30 c-85 75 -228 153 -347 191 -197 63 -343 63 -702 4 l-257 -43 -663
311 c-403 190 -679 314 -704 317 -36 5 -43 2 -62 -22z"/>
<path d="M33 1965 c-28 -20 -37 -59 -19 -93 12 -22 96 -67 465 -247 l451 -219
68 -80 c86 -102 221 -214 355 -294 74 -44 113 -74 128 -99 25 -40 96 -89 151
-104 37 -10 38 -11 38 -57 1 -123 105 -230 243 -248 44 -6 47 -9 47 -36 0 -37
22 -88 55 -133 35 -45 135 -95 191 -95 42 0 42 0 52 -44 28 -135 151 -225 287
-214 53 5 123 34 166 69 l26 21 44 -23 c35 -19 60 -24 124 -24 69 0 86 4 127
27 66 40 116 102 135 171 l16 57 42 0 c53 0 135 41 176 88 36 40 68 106 69
138 0 18 8 22 48 28 114 15 210 95 239 197 l16 57 48 5 c53 7 111 33 157 72
36 30 82 118 82 156 0 22 9 33 48 55 110 64 193 140 282 258 l45 59 333 163
c284 139 334 167 342 190 15 38 -3 79 -41 94 -36 15 -25 20 -429 -179 l-306
-149 -64 -88 c-61 -82 -156 -173 -216 -204 -25 -14 -28 -13 -51 15 -103 123
-182 200 -219 217 -103 45 -206 29 -289 -44 -48 -42 -95 -123 -95 -164 0 -18
-8 -22 -55 -27 -106 -11 -202 -93 -233 -199 l-17 -58 -40 0 c-83 -1 -182 -70
-221 -155 -13 -27 -24 -60 -24 -71 0 -18 -8 -22 -46 -28 -143 -19 -242 -119
-252 -255 -5 -81 15 -136 79 -212 40 -48 41 -50 24 -69 -44 -49 -133 -49 -179
-1 -39 41 -43 86 -12 144 32 60 33 81 1 112 -32 33 -58 31 -117 -6 -42 -27
-55 -31 -96 -26 -89 10 -133 105 -82 182 29 43 26 89 -6 114 -35 28 -56 26
-104 -5 -69 -46 -155 -33 -186 28 -20 38 -17 87 6 126 26 42 26 86 -1 113 -18
18 -28 20 -63 14 -88 -17 -124 -12 -157 21 -39 39 -48 96 -22 140 10 18 95
101 188 184 208 188 217 200 174 254 -15 19 -30 26 -55 26 -30 0 -56 -20 -228
-176 -159 -143 -199 -184 -217 -225 -13 -27 -25 -49 -27 -49 -2 0 -36 21 -76
47 -41 27 -123 99 -194 172 -68 69 -130 133 -137 141 -23 22 -925 460 -949
460 -12 0 -31 -7 -43 -15z m3675 -626 c27 -9 88 -71 175 -177 77 -94 -23 -238
-134 -192 -17 7 -67 57 -115 112 -73 85 -84 104 -84 136 0 48 32 99 73 117 39
17 46 18 85 4z m-276 -267 c29 -19 158 -165 176 -199 45 -84 -52 -193 -146
-162 -43 14 -199 190 -208 234 -18 97 98 180 178 127z m-238 -314 c128 -135
147 -178 111 -248 -27 -53 -110 -77 -161 -47 -24 14 -155 161 -172 194 -41 77
21 173 113 173 37 0 46 -6 109 -72z m-337 -209 c40 -34 162 -191 168 -217 20
-91 -89 -172 -173 -128 -27 14 -159 162 -180 203 -21 39 -14 80 19 118 46 52
118 63 166 24z"/>
</g>
</svg>
