<svg width="309" height="341" viewBox="0 0 309 341" fill="none" xmlns="http://www.w3.org/2000/svg">
<path d="M254.982 2.93097C209.251 16.7639 136.6 46.7044 78.0145 89.5704C101.469 83.5264 148.717 108.645 167.618 173.261C191.244 254.03 139.003 322.703 196.386 338.637C253.768 354.571 282.41 245.78 295.047 191.384C307.685 136.989 313.222 55.6783 303.882 23.2607C294.541 -9.15692 254.982 2.93097 254.982 2.93097Z" fill="#3271FC"/>
<path d="M78.0145 89.5704C24.2564 128.904 -19.4775 170.34 10.4322 204.406C32.3362 229.353 91.0102 204.299 132.165 186.725C147.206 180.302 159.908 174.878 167.618 173.261C148.717 108.645 101.469 83.5264 78.0145 89.5704Z" fill="#13299D"/>
</svg>
